<svg width="153" height="43" viewBox="0 0 153 43" fill="none" xmlns="http://www.w3.org/2000/svg">
<path fill-rule="evenodd" clip-rule="evenodd" d="M21.5471 15.6959H34.8581L24.1066 23.5094L24.1062 23.5084L17.4416 28.3498L25.0214 26.3842L28.2026 36.1764L17.4356 28.3517L6.65575 36.1764L10.7801 23.5206L0.000244141 15.6831L13.3112 15.6959L17.4356 3.02734L21.5471 15.6959Z" fill="#0087FF"/>
<path d="M58.9092 32.0763C58.9092 32.7429 59.0426 33.2013 59.3092 33.4513C59.5926 33.7013 60.0426 33.8263 60.6592 33.8263C61.0092 33.8263 61.4092 33.8013 61.8592 33.7513V36.1763C61.1092 36.2596 60.4759 36.3013 59.9592 36.3013C58.7092 36.3013 57.7842 36.0096 57.1842 35.4263C56.5842 34.8263 56.2842 33.7679 56.2842 32.2513V26.0513H53.7092V23.6763H56.2842V20.4263L58.9092 19.5263V23.6763H61.8092V26.0513H58.9092V32.0763ZM70.4999 23.4013C70.6832 23.4013 70.8249 23.4096 70.9249 23.4263L70.7249 25.9263C70.5415 25.8763 70.3665 25.8513 70.1999 25.8513C69.1665 25.8513 68.2999 26.1679 67.5999 26.8013C66.8999 27.4179 66.5499 28.2929 66.5499 29.4263V36.1763H63.9249V23.6763H66.5499V25.8013C66.8332 25.1346 67.3165 24.5679 67.9999 24.1013C68.6999 23.6346 69.5332 23.4013 70.4999 23.4013ZM80.7481 23.6763H83.3731V36.1763H80.7481V34.9263C80.2981 35.3929 79.7731 35.7763 79.1731 36.0763C78.5898 36.3596 77.9564 36.5013 77.2731 36.5013C76.5398 36.5013 75.7898 36.3513 75.0231 36.0513C74.2731 35.7346 73.6231 35.1763 73.0731 34.3763C72.5231 33.5763 72.2481 32.5013 72.2481 31.1513V23.6763H74.8731V31.1513C74.8731 32.2179 75.1648 32.9846 75.7481 33.4513C76.3481 33.9179 77.0481 34.1513 77.8481 34.1513C78.6314 34.1513 79.3064 33.8763 79.8731 33.3263C80.4564 32.7763 80.7481 31.8846 80.7481 30.6513V23.6763ZM87.7206 27.1263C87.7206 27.5429 87.9289 27.8513 88.3456 28.0513C88.7789 28.2346 89.4706 28.4429 90.4206 28.6763C91.3872 28.8929 92.1872 29.1263 92.8206 29.3763C93.4539 29.6096 93.9956 29.9846 94.4456 30.5013C94.9122 31.0179 95.1456 31.7179 95.1456 32.6013C95.1456 33.4013 94.9122 34.1013 94.4456 34.7013C93.9789 35.2846 93.3456 35.7346 92.5456 36.0513C91.7622 36.3513 90.8956 36.5013 89.9456 36.5013C88.6622 36.5013 87.5622 36.2513 86.6456 35.7513C85.7289 35.2346 85.0622 34.5179 84.6456 33.6013L86.7956 32.4763C87.0456 33.1096 87.4372 33.5846 87.9706 33.9013C88.5206 34.2013 89.1789 34.3513 89.9456 34.3513C90.6622 34.3513 91.2789 34.2013 91.7956 33.9013C92.3289 33.6013 92.5956 33.1763 92.5956 32.6263C92.5956 32.1429 92.3539 31.7929 91.8706 31.5763C91.4039 31.3429 90.6622 31.1013 89.6456 30.8513C88.6622 30.6013 87.8706 30.3679 87.2706 30.1513C86.6872 29.9179 86.1789 29.5679 85.7456 29.1013C85.3122 28.6179 85.0956 27.9846 85.0956 27.2013C85.0956 26.4346 85.3122 25.7596 85.7456 25.1763C86.1789 24.5929 86.7622 24.1429 87.4956 23.8263C88.2289 23.5096 89.0456 23.3513 89.9456 23.3513C91.0122 23.3513 91.9622 23.5846 92.7956 24.0513C93.6456 24.5013 94.2956 25.1346 94.7456 25.9513L92.5956 27.0263C92.1289 26.0096 91.2456 25.5013 89.9456 25.5013C89.2622 25.5013 88.7206 25.6513 88.3206 25.9513C87.9206 26.2346 87.7206 26.6263 87.7206 27.1263ZM100.489 32.0763C100.489 32.7429 100.623 33.2013 100.889 33.4513C101.173 33.7013 101.623 33.8263 102.239 33.8263C102.589 33.8263 102.989 33.8013 103.439 33.7513V36.1763C102.689 36.2596 102.056 36.3013 101.539 36.3013C100.289 36.3013 99.3643 36.0096 98.7643 35.4263C98.1643 34.8263 97.8643 33.7679 97.8643 32.2513V26.0513H95.2893V23.6763H97.8643V20.4263L100.489 19.5263V23.6763H103.389V26.0513H100.489V32.0763ZM112.139 23.3763C113.389 23.3763 114.489 23.6596 115.439 24.2263C116.389 24.7929 117.122 25.5763 117.639 26.5763C118.172 27.5763 118.439 28.6929 118.439 29.9263C118.439 31.1596 118.172 32.2763 117.639 33.2763C117.122 34.2763 116.389 35.0679 115.439 35.6513C114.489 36.2179 113.389 36.5013 112.139 36.5013C111.322 36.5013 110.53 36.3429 109.764 36.0263C109.014 35.6929 108.347 35.2346 107.764 34.6513V41.1763H105.139V23.6763H107.764V25.2013C108.347 24.6346 109.014 24.1929 109.764 23.8763C110.53 23.5429 111.322 23.3763 112.139 23.3763ZM111.814 33.9513C112.564 33.9513 113.239 33.7763 113.839 33.4263C114.455 33.0763 114.939 32.6013 115.289 32.0013C115.639 31.3846 115.814 30.6929 115.814 29.9263C115.814 29.1596 115.639 28.4679 115.289 27.8513C114.939 27.2346 114.455 26.7513 113.839 26.4013C113.239 26.0513 112.564 25.8763 111.814 25.8763C111.064 25.8763 110.38 26.0513 109.764 26.4013C109.147 26.7513 108.655 27.2429 108.289 27.8763C107.939 28.4929 107.764 29.1846 107.764 29.9513C107.764 30.7179 107.939 31.4096 108.289 32.0263C108.655 32.6263 109.147 33.1013 109.764 33.4513C110.38 33.7846 111.064 33.9513 111.814 33.9513ZM121.363 21.2013C120.863 21.2013 120.463 21.0679 120.163 20.8013C119.88 20.5179 119.738 20.1346 119.738 19.6513C119.738 19.1679 119.88 18.7929 120.163 18.5263C120.463 18.2429 120.863 18.1013 121.363 18.1013C121.863 18.1013 122.255 18.2429 122.538 18.5263C122.838 18.7929 122.988 19.1679 122.988 19.6513C122.988 20.1346 122.838 20.5179 122.538 20.8013C122.255 21.0679 121.863 21.2013 121.363 21.2013ZM120.038 36.1763V23.6763H122.663V36.1763H120.038ZM127.797 33.0763C127.797 33.3596 127.855 33.5596 127.972 33.6763C128.105 33.7763 128.314 33.8263 128.597 33.8263C128.814 33.8263 129.072 33.8013 129.372 33.7513V36.1763C128.639 36.2763 128.122 36.3263 127.822 36.3263C126.972 36.3263 126.314 36.1013 125.847 35.6513C125.397 35.2013 125.172 34.4013 125.172 33.2513V18.6763H127.797V33.0763ZM135.984 36.5013C134.8 36.5013 133.7 36.2096 132.684 35.6263C131.684 35.0263 130.892 34.2263 130.309 33.2263C129.725 32.2096 129.434 31.1096 129.434 29.9263C129.434 28.7429 129.725 27.6513 130.309 26.6513C130.892 25.6513 131.684 24.8596 132.684 24.2763C133.7 23.6763 134.8 23.3763 135.984 23.3763C137.167 23.3763 138.259 23.6763 139.259 24.2763C140.275 24.8596 141.075 25.6513 141.659 26.6513C142.242 27.6513 142.534 28.7429 142.534 29.9263C142.534 31.1096 142.242 32.2096 141.659 33.2263C141.075 34.2263 140.275 35.0263 139.259 35.6263C138.259 36.2096 137.167 36.5013 135.984 36.5013ZM135.984 33.8763C136.7 33.8763 137.359 33.7013 137.959 33.3513C138.559 32.9846 139.034 32.5013 139.384 31.9013C139.734 31.3013 139.909 30.6429 139.909 29.9263C139.909 29.2096 139.734 28.5513 139.384 27.9513C139.034 27.3513 138.559 26.8763 137.959 26.5263C137.359 26.1763 136.7 26.0013 135.984 26.0013C135.267 26.0013 134.609 26.1763 134.009 26.5263C133.409 26.8763 132.925 27.3513 132.559 27.9513C132.209 28.5513 132.034 29.2096 132.034 29.9263C132.034 30.6429 132.209 31.3013 132.559 31.9013C132.925 32.5013 133.409 32.9846 134.009 33.3513C134.609 33.7013 135.267 33.8763 135.984 33.8763ZM147.423 32.0763C147.423 32.7429 147.556 33.2013 147.823 33.4513C148.106 33.7013 148.556 33.8263 149.173 33.8263C149.523 33.8263 149.923 33.8013 150.373 33.7513V36.1763C149.623 36.2596 148.99 36.3013 148.473 36.3013C147.223 36.3013 146.298 36.0096 145.698 35.4263C145.098 34.8263 144.798 33.7679 144.798 32.2513V26.0513H142.223V23.6763H144.798V20.4263L147.423 19.5263V23.6763H150.323V26.0513H147.423V32.0763Z" fill="white"/>
<path d="M58.9543 11.8979L57.2618 8.9062H55.4262V11.8979H54.1032V3.55442H57.4168C57.9015 3.55442 58.3465 3.67361 58.7517 3.912C59.1649 4.15039 59.4907 4.47618 59.7291 4.88938C59.9754 5.29464 60.0986 5.73963 60.0986 6.22435C60.0986 6.74085 59.9635 7.21365 59.6933 7.64275C59.4232 8.07184 59.0656 8.39764 58.6206 8.62013L60.4681 11.8979H58.9543ZM55.4262 4.81787V7.64275H57.4168C57.8061 7.64275 58.1399 7.50369 58.418 7.22557C58.6961 6.94745 58.8352 6.61371 58.8352 6.22435C58.8352 5.83498 58.6961 5.50522 58.418 5.23504C58.1399 4.95693 57.8061 4.81787 57.4168 4.81787H55.4262ZM63.5045 5.78333C64.0846 5.78333 64.6011 5.92637 65.0541 6.21243C65.507 6.49055 65.8606 6.87197 66.1149 7.35668C66.3692 7.83346 66.4963 8.35791 66.4963 8.93004C66.4963 9.02539 66.4804 9.17637 66.4486 9.38297H61.6332C61.7365 9.85974 61.959 10.2412 62.3007 10.5272C62.6503 10.8133 63.0913 10.9563 63.6237 10.9563C63.9495 10.9563 64.2594 10.8848 64.5534 10.7418C64.8554 10.5987 65.0779 10.412 65.2209 10.1816L66.1983 10.7537C65.9281 11.1669 65.5706 11.4887 65.1256 11.7192C64.6806 11.9417 64.172 12.0529 63.5999 12.0529C62.9642 12.0529 62.4 11.9178 61.9074 11.6476C61.4226 11.3775 61.0452 11.004 60.775 10.5272C60.5128 10.0505 60.3817 9.51408 60.3817 8.91812C60.3817 8.3301 60.5128 7.7977 60.775 7.32093C61.0452 6.84415 61.4147 6.47068 61.8835 6.20051C62.3603 5.92239 62.9006 5.78333 63.5045 5.78333ZM65.3044 8.39367C65.2408 7.92484 65.0461 7.55534 64.7203 7.28517C64.4025 7.015 63.9972 6.87991 63.5045 6.87991C63.1629 6.87991 62.849 6.95143 62.5629 7.09446C62.2769 7.22955 62.0504 7.41628 61.8835 7.65467C61.7166 7.88511 61.6292 8.13144 61.6213 8.39367H65.3044ZM69.2828 10.42L70.9992 5.93828H72.3342L70.0457 11.8979H68.5081L66.2315 5.93828H67.5545L69.2828 10.42ZM73.5064 4.75827C73.268 4.75827 73.0773 4.6947 72.9342 4.56756C72.7991 4.43248 72.7316 4.24971 72.7316 4.01927C72.7316 3.78883 72.7991 3.61004 72.9342 3.4829C73.0773 3.34782 73.268 3.28027 73.5064 3.28027C73.7447 3.28027 73.9315 3.34782 74.0666 3.4829C74.2096 3.61004 74.2811 3.78883 74.2811 4.01927C74.2811 4.24971 74.2096 4.43248 74.0666 4.56756C73.9315 4.6947 73.7447 4.75827 73.5064 4.75827ZM72.8746 11.8979V5.93828H74.1262V11.8979H72.8746ZM77.8548 5.78333C78.4348 5.78333 78.9513 5.92637 79.4043 6.21243C79.8572 6.49055 80.2108 6.87197 80.4651 7.35668C80.7194 7.83346 80.8465 8.35791 80.8465 8.93004C80.8465 9.02539 80.8306 9.17637 80.7988 9.38297H75.9834C76.0867 9.85974 76.3092 10.2412 76.6509 10.5272C77.0006 10.8133 77.4416 10.9563 77.974 10.9563C78.2998 10.9563 78.6097 10.8848 78.9037 10.7418C79.2056 10.5987 79.4281 10.412 79.5712 10.1816L80.5485 10.7537C80.2784 11.1669 79.9208 11.4887 79.4758 11.7192C79.0308 11.9417 78.5223 12.0529 77.9501 12.0529C77.3144 12.0529 76.7502 11.9178 76.2576 11.6476C75.7729 11.3775 75.3954 11.004 75.1252 10.5272C74.863 10.0505 74.7319 9.51408 74.7319 8.91812C74.7319 8.3301 74.863 7.7977 75.1252 7.32093C75.3954 6.84415 75.7649 6.47068 76.2337 6.20051C76.7105 5.92239 77.2509 5.78333 77.8548 5.78333ZM79.6546 8.39367C79.591 7.92484 79.3963 7.55534 79.0705 7.28517C78.7527 7.015 78.3474 6.87991 77.8548 6.87991C77.5131 6.87991 77.1992 6.95143 76.9131 7.09446C76.6271 7.22955 76.4006 7.41628 76.2337 7.65467C76.0669 7.88511 75.9795 8.13144 75.9715 8.39367H79.6546ZM86.9585 9.9551L88.1981 5.93828H89.5212L87.5903 11.8979H86.3268L85.0753 7.96457L83.8357 11.8979H82.5961L80.7128 5.93828H82.0239L83.2159 9.94318L84.4078 5.93828H85.7428L86.9585 9.9551ZM96.7822 5.93828H98.0337V11.8979H96.7822V11.302C96.5676 11.5245 96.3173 11.7072 96.0313 11.8503C95.7532 11.9854 95.4512 12.0529 95.1254 12.0529C94.7758 12.0529 94.4182 11.9814 94.0527 11.8384C93.6951 11.6874 93.3852 11.4212 93.123 11.0398C92.8607 10.6583 92.7296 10.1458 92.7296 9.50216V5.93828H93.9812V9.50216C93.9812 10.0107 94.1202 10.3762 94.3983 10.5987C94.6844 10.8212 95.0181 10.9325 95.3996 10.9325C95.773 10.9325 96.0948 10.8014 96.365 10.5391C96.6431 10.2769 96.7822 9.8518 96.7822 9.26378V5.93828ZM100.106 7.58315C100.106 7.78181 100.206 7.92881 100.404 8.02417C100.611 8.11158 100.941 8.2109 101.394 8.32215C101.855 8.42545 102.236 8.5367 102.538 8.65589C102.84 8.76714 103.098 8.94593 103.313 9.19226C103.535 9.43859 103.647 9.77234 103.647 10.1935C103.647 10.5749 103.535 10.9086 103.313 11.1947C103.09 11.4728 102.788 11.6874 102.407 11.8384C102.033 11.9814 101.62 12.0529 101.167 12.0529C100.555 12.0529 100.031 11.9337 99.5939 11.6953C99.1569 11.449 98.8391 11.1073 98.6404 10.6703L99.6655 10.1339C99.7847 10.4358 99.9714 10.6623 100.226 10.8133C100.488 10.9563 100.802 11.0278 101.167 11.0278C101.509 11.0278 101.803 10.9563 102.049 10.8133C102.304 10.6703 102.431 10.4676 102.431 10.2054C102.431 9.97496 102.316 9.80809 102.085 9.70479C101.863 9.59355 101.509 9.47833 101.024 9.35913C100.555 9.23994 100.178 9.12869 99.8919 9.02539C99.6138 8.91414 99.3715 8.74727 99.1649 8.52478C98.9582 8.29434 98.8549 7.99238 98.8549 7.61891C98.8549 7.25338 98.9582 6.93156 99.1649 6.65344C99.3715 6.37533 99.6496 6.16078 99.9992 6.0098C100.349 5.85882 100.738 5.78333 101.167 5.78333C101.676 5.78333 102.129 5.89458 102.526 6.11707C102.931 6.33162 103.241 6.63358 103.456 7.02294L102.431 7.53547C102.208 7.05076 101.787 6.8084 101.167 6.8084C100.842 6.8084 100.583 6.87991 100.393 7.02294C100.202 7.15803 100.106 7.34477 100.106 7.58315Z" fill="white" fill-opacity="0.25"/>
</svg>